<svg width="48" height="48" viewBox="0 0 796 173" fill="none" xmlns="http://www.w3.org/2000/svg">
<path d="M245.631 146.099C241.775 146.099 238.28 145.416 235.146 144.05C232.092 142.684 229.441 140.676 227.191 138.024C224.942 135.373 223.214 132.158 222.008 128.382C220.804 124.525 220.201 120.146 220.201 115.245C220.201 110.424 220.924 106.125 222.371 102.349C223.896 98.4918 225.866 95.2376 228.276 92.5861C230.767 89.9345 233.579 87.8856 236.713 86.4394C239.926 84.9929 243.22 84.2699 246.595 84.2699C250.051 84.2699 253.104 84.9126 255.755 86.1983C258.488 87.4839 261.059 89.2918 263.468 91.6219H263.831L263.228 81.1363V59.2007H275.159V144.653H265.398L264.434 137.421H264.071C261.741 139.752 258.969 141.8 255.755 143.568C252.541 145.256 249.166 146.099 245.631 146.099ZM248.404 136.216C253.707 136.216 258.649 133.565 263.228 128.262V100.3C260.897 98.0499 258.568 96.4831 256.238 95.5993C253.907 94.7154 251.577 94.2735 249.248 94.2735C246.917 94.2735 244.747 94.7556 242.739 95.7197C240.729 96.6839 238.962 98.09 237.437 99.9381C235.91 101.706 234.703 103.875 233.82 106.447C232.936 109.018 232.495 111.91 232.495 115.124C232.495 121.954 233.86 127.177 236.593 130.793C239.405 134.408 243.342 136.216 248.404 136.216ZM326.671 146.099C321.769 146.099 317.19 145.215 312.932 143.448C308.672 141.6 304.976 138.948 301.842 135.493C298.71 131.958 296.219 127.699 294.37 122.717C292.602 117.655 291.718 111.87 291.718 105.362C291.718 98.9337 292.602 93.1887 294.37 88.1267C296.219 83.0645 298.71 78.7658 301.842 75.2304C305.057 71.695 308.834 69.0033 313.172 67.1553C317.591 65.2268 322.413 64.2627 327.635 64.2627C332.456 64.2627 336.755 65.2671 340.531 67.2759C344.308 69.2043 347.402 71.454 349.811 74.0252L343.062 81.6183C341.054 79.5291 338.803 77.8821 336.312 76.6769C333.821 75.3911 330.93 74.7484 327.635 74.7484C324.1 74.7484 320.886 75.4715 317.994 76.9178C315.1 78.2838 312.609 80.2926 310.521 82.9441C308.511 85.5153 306.944 88.6891 305.82 92.4655C304.696 96.1616 304.133 100.34 304.133 105C304.133 109.741 304.696 113.999 305.82 117.776C306.944 121.552 308.552 124.766 310.641 127.418C312.73 130.069 315.221 132.118 318.114 133.565C321.006 134.931 324.26 135.613 327.876 135.613C331.331 135.613 334.425 134.89 337.156 133.444C339.889 131.998 342.42 129.949 344.749 127.297L351.498 134.649C348.366 138.345 344.749 141.198 340.651 143.207C336.635 145.135 331.974 146.099 326.671 146.099ZM403.733 146.099C397.144 146.099 392.123 144.211 388.668 140.435C385.213 136.658 383.485 131.194 383.485 124.043V68.7221H363.237V59.2007H395.417V124.766C395.417 128.864 396.421 131.837 398.429 133.685C400.519 135.453 403.211 136.337 406.505 136.337C409.559 136.337 413.094 135.493 417.112 133.806L420.004 142.725C417.192 143.849 414.581 144.693 412.17 145.256C409.84 145.818 407.028 146.099 403.733 146.099ZM462.716 144.653V95.3582H436.322V85.7162H474.648V144.653H462.716ZM467.658 74.2663C465.087 74.2663 462.957 73.503 461.269 71.9764C459.582 70.3692 458.738 68.2803 458.738 65.709C458.738 63.1377 459.582 61.0889 461.269 59.5622C462.957 57.9552 465.087 57.1517 467.658 57.1517C470.229 57.1517 472.359 57.9552 474.046 59.5622C475.734 61.0889 476.577 63.1377 476.577 65.709C476.577 68.2803 475.734 70.3692 474.046 71.9764C472.359 73.503 470.229 74.2663 467.658 74.2663ZM502.898 144.653V85.7162H512.298L513.262 93.4298H513.504C514.869 90.7782 516.557 88.6087 518.567 86.9214C520.655 85.1537 523.386 84.2699 526.761 84.2699C532.386 84.2699 536.001 87.6446 537.608 94.3939C539.216 91.3407 541.023 88.89 543.033 87.042C545.121 85.1939 547.854 84.2699 551.229 84.2699C555.406 84.2699 558.62 85.8769 560.87 89.0908C563.201 92.2244 564.365 96.7642 564.365 102.71V144.653H552.674V103.554C552.674 97.5275 550.867 94.5145 547.251 94.5145C545.404 94.5145 543.877 95.1975 542.67 96.5634C541.466 97.9293 540.18 99.9783 538.815 102.71V144.653H528.448V103.554C528.448 97.5275 526.681 94.5145 523.146 94.5145C521.298 94.5145 519.731 95.1975 518.446 96.5634C517.16 97.9293 515.874 99.9783 514.589 102.71V144.653H502.898ZM596.472 146.099C593.659 146.099 591.008 145.697 588.517 144.894C586.106 144.09 584.018 142.966 582.25 141.519C580.483 139.993 579.076 138.185 578.032 136.096C577.067 134.006 576.585 131.676 576.585 129.105C576.585 125.811 577.349 122.918 578.876 120.427C580.483 117.936 582.932 115.807 586.227 114.04C589.601 112.272 593.9 110.826 599.124 109.701C604.426 108.576 610.775 107.732 618.166 107.17C618.005 103.554 616.801 100.46 614.55 97.8892C612.38 95.318 608.685 94.0324 603.462 94.0324C599.847 94.0324 596.311 94.7154 592.856 96.0813C589.481 97.4473 586.348 98.974 583.455 100.661L578.996 92.5861C580.603 91.6219 582.411 90.6577 584.419 89.6934C586.429 88.649 588.557 87.7249 590.807 86.9214C593.138 86.1179 595.507 85.4751 597.918 84.9929C600.409 84.511 602.94 84.2699 605.511 84.2699C613.707 84.2699 619.853 86.4795 623.951 90.8988C628.049 95.318 630.099 101.425 630.099 109.219V144.653H620.336L619.372 137.06H619.009C615.877 139.47 612.34 141.6 608.404 143.448C604.547 145.215 600.569 146.099 596.472 146.099ZM599.847 136.578C602.98 136.578 606.034 135.895 609.006 134.529C612.06 133.163 615.113 131.234 618.166 128.744V114.763C612.38 115.245 607.561 115.888 603.703 116.691C599.847 117.414 596.753 118.378 594.423 119.584C592.172 120.709 590.567 121.994 589.601 123.441C588.637 124.887 588.156 126.494 588.156 128.262C588.156 131.234 589.281 133.364 591.531 134.649C593.86 135.935 596.633 136.578 599.847 136.578ZM685.467 146.099C681.126 146.099 677.431 145.497 674.377 144.291C671.405 143.086 668.994 141.399 667.146 139.229C665.379 137.06 664.093 134.489 663.289 131.516C662.485 128.462 662.084 125.088 662.084 121.392V95.3582H645.934V86.3188L662.566 85.7162L664.133 67.0348H674.016V85.7162H701.857V95.3582H674.016V121.392C674.016 126.454 675.02 130.23 677.03 132.721C679.118 135.212 682.854 136.457 688.238 136.457C690.809 136.457 693.18 136.256 695.348 135.855C697.518 135.373 699.647 134.73 701.737 133.926L704.148 142.725C701.496 143.608 698.683 144.372 695.711 145.014C692.737 145.738 689.322 146.099 685.467 146.099ZM748.788 146.099C744.289 146.099 740.111 145.416 736.253 144.05C732.397 142.684 729.023 140.676 726.129 138.024C723.237 135.373 720.947 132.118 719.26 128.262C717.652 124.405 716.849 120.026 716.849 115.124C716.849 110.303 717.693 106.004 719.38 102.228C721.067 98.3714 723.277 95.1171 726.009 92.4655C728.821 89.814 732.035 87.8053 735.65 86.4394C739.267 84.9929 743.043 84.2699 746.98 84.2699C751.319 84.2699 755.176 84.9528 758.551 86.3188C761.926 87.6847 764.737 89.6131 766.988 92.104C769.318 94.5145 771.086 97.4473 772.29 100.902C773.495 104.277 774.098 108.013 774.098 112.111C774.098 113.397 774.058 114.602 773.978 115.727C773.898 116.852 773.777 117.816 773.617 118.619H728.781C729.424 124.726 731.714 129.266 735.65 132.239C739.668 135.212 744.57 136.698 750.355 136.698C753.649 136.698 756.662 136.256 759.395 135.373C762.126 134.408 764.818 133.123 767.469 131.516L771.687 139.109C768.635 141.118 765.18 142.805 761.323 144.171C757.547 145.456 753.369 146.099 748.788 146.099ZM747.341 93.6709C745.092 93.6709 742.962 94.0324 740.954 94.7556C738.945 95.3983 737.137 96.4027 735.53 97.7686C733.923 99.1347 732.558 100.822 731.432 102.831C730.307 104.839 729.504 107.17 729.023 109.821H763.371C762.97 104.438 761.323 100.42 758.431 97.7686C755.618 95.0368 751.922 93.6709 747.341 93.6709Z" fill="white"/>
<path fill-rule="evenodd" clip-rule="evenodd" d="M175.6 88.6847C177.687 86.5971 180.587 85.3212 183.719 85.3212C190.097 85.3212 195.201 90.5403 195.201 96.9191C195.201 103.298 189.982 108.517 183.603 108.517C177.224 108.517 172.005 103.298 172.005 96.9191C172.005 95.8753 172.237 94.9476 172.468 94.0197V94.0196L159.943 86.829C157.275 90.0764 153.448 92.396 149.041 93.0919V107.473C154.028 108.865 157.623 113.272 157.623 118.607C157.623 124.986 152.404 130.205 146.025 130.205C139.647 130.205 134.428 124.986 134.428 118.607C134.428 113.272 138.139 108.865 143.01 107.473V93.0919C138.487 92.396 134.66 89.9604 131.876 86.5971L119.466 93.7877C119.698 94.8315 119.93 95.8753 119.93 96.9191C119.93 103.298 114.711 108.517 108.332 108.517C101.953 108.517 96.7344 103.298 96.7344 96.9191C96.7344 90.5403 101.953 85.3212 108.332 85.3212C111.464 85.3212 114.247 86.5971 116.335 88.5686L128.861 81.378C128.165 79.4063 127.701 77.3187 127.701 75.1151C127.701 72.7955 128.165 70.5919 128.861 68.6203L116.567 61.4295C114.479 63.6331 111.58 64.9089 108.332 64.9089C101.953 64.9089 96.7344 59.6899 96.7344 53.3111C96.7344 46.9322 101.953 41.7131 108.332 41.7131C114.711 41.7131 119.93 46.9322 119.93 53.3111C119.93 54.3549 119.814 55.2826 119.582 56.2104L131.992 63.4012C134.776 60.1538 138.603 57.7183 143.01 57.0223V42.757C138.023 41.3651 134.428 36.9579 134.428 31.6229C134.428 25.244 139.879 20.0251 146.257 20.0251C152.636 20.0251 157.855 25.244 157.855 31.6229C157.855 36.9579 154.144 41.3651 149.273 42.757V57.0223C153.68 57.7183 157.507 60.0378 160.291 63.4012L172.701 56.2104C172.352 55.2826 172.237 54.3549 172.237 53.3111C172.237 46.9322 177.456 41.7131 183.834 41.7131C190.213 41.7131 195.432 46.9322 195.432 53.3111C195.432 59.6899 190.213 64.9089 183.834 64.9089C180.587 64.9089 177.687 63.6331 175.6 61.5455L163.19 68.7362C164.002 70.7079 164.466 72.9115 164.466 75.1151C164.466 77.3187 163.886 79.5223 163.19 81.494L175.6 88.6847ZM189.169 53.3109C189.169 50.2954 186.733 47.8599 183.717 47.8599C180.703 47.8599 178.266 50.4114 178.266 53.4269C178.266 56.4424 180.703 58.8779 183.717 58.8779C186.733 58.8779 189.169 56.3264 189.169 53.3109ZM108.332 58.878C105.317 58.878 102.881 56.4425 102.881 53.427C102.881 50.4116 105.317 47.976 108.332 47.976C111.347 47.976 113.783 50.4116 113.783 53.427C113.783 56.4425 111.347 58.878 108.332 58.878ZM102.881 96.9191C102.881 99.9344 105.317 102.37 108.332 102.37C111.347 102.37 113.783 99.9344 113.783 96.9191C113.783 93.9036 111.347 91.4681 108.332 91.4681C105.317 91.4681 102.881 93.9036 102.881 96.9191ZM140.574 31.623C140.574 28.6075 143.01 26.1719 146.025 26.1719C149.04 26.1719 151.476 28.6075 151.476 31.623C151.476 34.6384 149.04 37.074 146.025 37.074C143.01 37.074 140.574 34.6384 140.574 31.623ZM146.025 124.058C149.04 124.058 151.476 121.623 151.476 118.607C151.476 115.592 149.04 113.156 146.025 113.156C143.01 113.156 140.574 115.592 140.574 118.607C140.574 121.623 143.01 124.058 146.025 124.058ZM146.025 87.409C139.183 87.409 133.732 81.842 133.732 75.1152C133.732 68.2724 139.183 62.8214 146.025 62.8214C152.752 62.8214 158.319 68.2724 158.319 75.1152C158.319 81.842 152.752 87.409 146.025 87.409ZM178.266 96.9191C178.266 99.9344 180.703 102.37 183.717 102.37C186.733 102.37 189.169 99.9344 189.169 96.9191C189.169 93.9036 186.733 91.4681 183.717 91.4681C180.703 91.4681 178.266 93.9036 178.266 96.9191Z" fill="#FFC673"/>
<path d="M186.335 124.425C186.335 138.895 176.531 151.133 163.481 152.552L163.279 152.62C145.293 152.62 144.617 152.62 144.617 152.62C136.369 152.62 124.198 152.62 107.768 152.62C107.768 152.62 54.2181 152.62 54.1506 152.62C54.1506 152.62 53.6096 152.62 53.0012 152.552C52.9335 152.552 52.8659 152.552 52.7983 152.552C38.9375 151.335 21.8313 137.204 21.2904 118.205C20.8847 104.074 29.6069 90.6188 43.4 84.3984C44.8198 79.5979 47.0511 75.0677 49.8909 71.1462C51.6489 68.7121 62.7374 54.1075 82.3453 53.2962C103.576 52.4172 116.355 68.5092 117.504 70.0644C120.141 69.3205 122.913 68.9825 125.686 68.9825C141.169 68.9825 154.286 80.3416 158.749 96.2307C159.492 96.1631 160.168 96.0954 160.912 96.0954C175.179 96.0954 186.335 108.942 186.335 124.425Z" fill="#80F2FF"/>
</svg>
